<?xml version="1.0"?>
<svg xmlns:rdf="http://www.w3.org/1999/02/22-rdf-syntax-ns#" xmlns="http://www.w3.org/2000/svg" xmlns:cc="http://creativecommons.org/ns#" xmlns:dc="http://purl.org/dc/elements/1.1/" xmlns:svg="http://www.w3.org/2000/svg" id="svg3816" viewBox="0 0 142.47 147.54" version="1.1">
  <title id="title3047">tree-04</title>
  <g id="layer1" transform="translate(-330.45 -728.03)">
    <g id="g4413">
      <path id="path3022" stroke-linejoin="round" d="m453.63 831.64 3.6167 4.4486-3.2766 1.865 1.7743 1.5929-2.0138 1.797 1.4441 3.2992-1.8601 0.7334-2.1499-0.72844 1.0005 2.901-3.4126-0.66041 0.38052 3.1455-2.5254 0.13606 0.60232 3.3446-1.9281-0.52932-0.48397 2.7699-3.2362-1.3031-0.30257 6.1372-5.3457-5.1997-2.76 7.536-2.4851-3.0321-1.3711 1.9735-2.2406-2.4121-3.5664 0.4032 3.1504 3.6294-4.0326-0.41594 0.80143 3.1228-2.9917-0.68308 0.44855 4.4082-3.9696-3.1632-1.9685 2.6388-2.2633-2.833-1.6787 4.1007-2.417-1.7694-0.39326 4.4536-2.6615-2.3894-1.7694 2.417-1.4441-3.2992-4.2041 4.2367-0.89213-4.8064-1.3988-2.4574-0.97291 1.5299-1.3308-1.1947-1.9458 3.0597-2.0868-3.4757-2.5885 2.8833-0.97788-2.4801-4.2495 3.3949-0.18141-3.3673-3.6117-0.43862-0.005-4.01-3.2766 1.865-1.177-2.2583-3.8966 2.1095 0.63773-3.8335-4.8291 0.47122 0.0631-2.7472-3.6344-0.85954 2.5205-4.146-2.417-1.7694-3.2135-0.88221 2.0138-1.797-4.766-2.276 2.6566-1.6206-3.2589-1.724 1.9912-2.2179-4.5216-1.656-5.802 2.0011 0.43862-3.6117-4.1007-1.6787 3.8512-2.9513-4.6576-4.1814 1.172-1.7517-4.2998-1.4569 0.77379-1.3081-3.6344-0.85953 2.213-2.0188-3.2135-0.8822 2.833-2.2633-4.3452-2.2987 3.1228-0.80143-1.2223-3.1001 1.661-0.51161-4.6576-4.1815 2.0365-1.3761-3.2185-4.8922 3.4126 0.66042-0.84679-3.9646 2.349 0.50664-2.7068-3.2312 3.3673-0.1814-3.1504-3.6294 2.349 0.50665-1.0232-3.3219 3.8562 1.0586-0.22676-4.2091 2.4574-1.3988-4.6576-4.1814 2.0365-1.3761-2.1322-4.3175 4.3855-0.86946-1.4215-2.8783 2.9464-0.15873-0.67034-4.6073 3.7655-0.62498-2.8833-2.5885 2.7246-0.35785-1.4668-3.7202 2.7473 0.0631-0.57965-2.9237 5.4314 2.8734 1.6964-7.6897 3.0597 1.9458 0.26217-2.969 4.3905 3.1405 1.9685-2.6388 1.4895 4.1411-1.87-7.2865 3.6344 0.85953-1.7113-4.3402 2.5708 0.70577-0.80143-3.1228s3.6975-1.8877 4.8064-0.89214c1.109 0.99559 0.70576-2.5708 0.70576-2.5708l3.5033 2.344 1.0133-4.698 3.0598 1.9458 2.8053-6.6942 2.974 4.2722 2.2533-5.187 1.734 4.7611 5.4442-4.7257 1.734 4.7611 2.344-3.5033 1.5348 4.9829 2.7876-3.1051 2.0642 3.0548 2.0089-5.807 1.6206 2.6565 1.7014-3.6798 3.3269 2.9868 3.7251 2.5432 2.5205-4.146 2.9286 3.4303 0.68309-2.9917 2.2633 2.833 1.7694-2.417 1.2904 4.3628 2.765-3.526 0.7157 5.4492 6.6892-1.2046-1.0813 3.4353 3.3446-0.60231-1.3711 1.9734 5.8247-1.5802-3.8059 3.7931 5.6986 3.9143 5.0963 0.56971-3.1859 3.5487 3.1908 0.46129-0.4613 3.1908 5.6709-0.51657-1.1494 2.1726 2.6162 1.5476-1.1494 2.1726 2.4397 2.1903-1.792 1.9961 3.5891 0.0177-0.99559 1.109 3.0371 1.5249-1.1494 2.1726 2.4624 2.6112-3.385 3.7705 3.1504 3.6294-2.8557 1.8424 2.1095 3.8966-2.7246 0.35785 2.9513 3.8512-1.3485 2.3944 5.807 2.0089-2.0365 1.3761 2.8606 2.1676-2.213 2.0188 1.797 2.0138-2.6792 1.1997 2.8833 2.5885-3.7428 1.0459 4.1234 2.0996-1.5703 2.1952 2.4851 3.0321-4.7384 2.1549-0.35289 1.2854 1.734 4.7611-5.9608-0.94527 1.8247 6.4447-5.2727 0.073 1.313 4.7838-3.3269-2.9867-0.7915 4.8971z" stroke="#000" stroke-linecap="round" fill="#008000"/>
      <path id="path4393" opacity=".67333" d="m365.06 832.4c-1.844 2.1804 3.4027 4.8867 3.6994 7.7269 0.22806 2.1832-2.1037 4.2737-1.5547 6.399 0.44188 1.7107 2.3543 2.6368 3.5894 3.9002 1.6776 1.7161 2.9746 4.0611 5.1856 4.9944 2.4062 1.0157 5.2211 0.15979 7.8312 0.25245 1.9729 0.07 3.9488 0.36866 5.918 0.22939 2.8642-0.20257 5.8321-0.41951 8.475-1.5418 1.0298-0.43729 1.7256-1.457 2.7255-1.9589 1.8309-0.91887 3.9273-2.5425 5.858-1.8579 0.93491 0.33151 0.7069 2.1388 1.6362 2.4856 1.6785 0.6265 3.4682-0.90777 5.1741-1.4551 3.5425-1.1366 7.0781-2.3259 10.497-3.7937 2.4073-1.0336 4.9445-1.9302 7.0273-3.5194 2.8069-2.1416 4.4188-5.5565 7.0758-7.8816 2.0193-1.767 4.8506-2.5454 6.6504-4.5356 1.1589-1.2819 2.1614-2.8552 2.4771-4.5542 0.51914-2.7946-1.8473-5.7087-1.1123-8.4545 1.6531-6.1757 14.573-9.5285 11.667-15.223-1.7309-3.3914-8.1716 2.2964-11.418 0.30757-4.7428-2.9051-1.8511-16.662-7.178-15.062-5.0079 1.5036 3.9979 10.638 2.1682 15.536-0.91876 2.4595-4.5319 2.9583-5.9365 5.1765-1.553 2.4526-1.029 5.8048-2.3671 8.3809-1.513 2.9128-3.6909 5.539-6.2134 7.639-1.8494 1.5396-4.1528 2.4468-6.3334 3.4645-1.4498 0.67666-3.0416 1.0278-4.4702 1.7482-1.5611 0.78717-2.8773 2.0084-4.4402 2.7918-2.3615 1.1837-4.8391 2.1806-7.3942 2.851-1.6925 0.44406-3.7056 1.6793-5.1941 0.75938-1.7248-1.0659-0.0107-5.0531-1.9047-5.7768-2.3965-0.91575-4.4367 2.5778-6.6703 3.8398-1.7037 0.96259-3.212 2.48-5.1341 2.8466-2.4778 0.47264-5.0181-0.54871-7.5042-0.97563-1.9983-0.34316-4.0909-0.45914-5.948-1.273-1.327-0.58158-2.2432-1.8818-3.5494-2.5087-1.0415-0.4999-2.5849-1.839-3.3309-0.95696z" fill="#6b8e23"/>
      <path id="path3020" stroke-linejoin="round" d="m444.42 830.65-1.2541 4.8696-3.2519-1.7203 0.14934 2.7721-2.7207-1.2435 0.4285 3.2625-1.8048-0.66099-0.65801 4.2056-2.6151-1.6283-0.55237 3.8208-1.7399-1.8018 0.098 4.1649-2.1382-2.1594-0.84511 3.0784-2.4823-1.5091 0.12219 2.2681-2.5336-0.11625-0.0755 3.2897-3.1327-1.8531 0.94609 3.4874-2.5366-2.5171-1.6011 3.1191-3.5281 0.19007 1.7746-2.2439s-2.2545 0.37419-1.6584-0.28976c0.59608-0.66396 1.7611-2.4959 1.7611-2.4959l-3.593 1.3309-2.3813 5.0567-1.675-2.9426-2.2922 2.019s-1.7534-2.0538-1.1438-2.4658c0.60966-0.41194 1.921-1.8726 1.921-1.8726l-4.5874 1.6372-0.22187 2.9184-2.3767-1.8939-2.5548 4.1814-2.0598-3.0482-0.34406 0.65038-2.078 3.6503-0.17649-3.2761-2.7042 1.4094-0.61263-1.9889-2.7827 2.2982-1.0895-1.4577-1.9074 2.1247-0.17648-3.2761-2.6363 2.6694-1.515-2.3194-2.3194 1.515-1.6071-1.6826 2.4764-3.2926-2.9562 1.4229 1.3356-3.3575-4.2676 2.8836-0.53413-2.8777-2.5472-0.36825 2.9155-2.179-3.9808-1.1756 3.685-1.9677-2.6015-1.3763v0" stroke="#000" stroke-linecap="round" stroke-width=".8" fill="none"/>
      <path id="path4391" opacity=".59667" d="m365.17 765.14s-3.5676 1.8752-4.9162 3.3219c-1.0584 1.1354-1.4624 2.7449-2.3304 4.0318-1.2995 1.9266-3.0128 3.5542-4.2895 5.4961-0.76702 1.1666-1.2319 2.5155-2.0099 3.6749-0.89209 1.3293-2.338 2.284-3.026 3.7296-0.75427 1.5848-1.1201 3.3986-1.0811 5.1534 0.0512 2.3054 1.4062 4.4163 1.7197 6.7009 0.23841 1.7371 0.14439 3.5058 0.11348 5.2589-0.0451 2.5591-1.1216 5.2002-0.43619 7.6662 1.0801 3.8858 4.2754 6.8654 6.8223 9.9926 2.1258 2.6102 4.6298 4.8893 7.015 7.2648 1.7569 1.7498 3.3866 3.6603 5.3723 5.1454 3.6666 2.7422 7.4771 5.7121 11.917 6.8308 2.029 0.51127 4.2348 0.29637 6.2749-0.16821 1.5354-0.34965 2.9387-1.1596 4.3118-1.9307 2.0796-1.1678 3.5711-4.5873 5.8958-4.0541 1.4785 0.33913 0.97153 3.1402 2.2511 3.9548 1.7805 1.1335 4.2564 0.99058 6.3114 0.50918 2.1174-0.49604 3.6015-2.4859 5.5936-3.3584 1.8087-0.79216 3.849-0.93786 5.6848-1.665 3.9063-1.5472 8.3764-2.628 11.242-5.7008 3.3451-3.5871 2.9253-9.5274 5.7235-13.556 1.0984-1.5813 3.0873-2.3932 4.2023-3.9628 1.3617-1.9169 2.3719-4.1434 2.88-6.4392 0.71019-3.2089 0.84245-6.6462 0.14824-9.8586-0.34813-1.611-1.8447-2.8452-2.1091-4.472-0.42354-2.6052 1.4233-5.269 0.9351-7.8629-0.51926-2.7588-2.3721-5.1187-3.9668-7.429-1.8758-2.7176-4.2368-5.0723-6.5161-7.4615-1.6565-1.7363-3.4351-3.3525-5.1939-4.9852-2.8124-2.6108-4.9387-6.4399-8.5665-7.6907-3.9017-1.3453-8.3771-0.27098-12.353 0.83534-3.4616 0.96318-6.69 2.8037-9.5849 4.9322-2.7726 2.0386-4.233 5.6919-7.2465 7.3537-2.1566 1.1893-4.7596 1.4299-7.218 1.5777-2.2824 0.13726-4.5671-0.31349-6.8286-0.65115-2.658-0.39686-7.8994-1.6125-7.8994-1.6125l-1.1033 1.588" fill="#9acd32"/>
      <path id="path3010" stroke-linejoin="round" d="m365.75 765.76-2.8031-1.5641 0.78135 1.7091-1.9718-0.12536-0.78081 2.0657-1.4122-0.4545 0.14579 3.5288-1.6933-1.0924 0.29103 3.2827-2.3102-1.5328 0.29569 2.7177-1.6194-0.41296 1.5601 1.8133-1.4836 0.47098 1.1718 0.67627 0.0193 1.5148-3.2508-1.3008 0.97184 1.7577-2.191-0.55872 0.41698 1.5218-1.5788 0.4467 2.1389 2.999-2.2362-0.85336-0.10462 1.1057-2.0005-0.51013 1.1624 1.8063-1.3596 0.88004 1.279 1.1755-2.6647 0.92473 2.165 1.7788-2.3216 1.7672 2.4148 0.42705-2.4169 1.7429 1.6314 0.88784-0.41173 1.688 1.4622 0.18413-1.012 1.1574 1.8838 1.141-0.82138 1.206 2.2815 1.148-2.586 1.0392 0.80268 1.054-2.9458 0.28686 3.1342 1.9316-2.4122 1.1779 1.3623 0.72485-1.7953 1.6182 1.9552 0.21548-0.9999 1.6324 2.0791 0.62452-0.4284 1.7781 1.7147 0.43726-0.7355 2.3603 2.3528 0.22255-0.59027 2.1143 2.7506 0.22957-0.57362 2.0242 2.2623-0.36677 0.49556 1.6362 1.5788-0.44668-0.41173 1.688 1.5575 0.20844-1.2691 1.4693 1.7433 0.82201-0.91672 1.1817 3.5079 0.98891-0.93069 2.8768 2.2743 0.1081-0.49034 1.5736 1.9885 0.0352-0.68084 1.525 2.3122-0.63714 0.85996 1.8235 1.1858-1.0188 0.0646 1.8094 1.8526-0.84871 0.0313 1.9897 1.0572-0.86281 0.0599 2.3744 1.2405-1.8541 0.74804 1.8894 1.1785-2.0586 0.25038 2.423 1.7787-1.5281 0.90992 1.5532 1.0785-1.5179 0.6861 1.6848 1.3596-0.88005-0.13063 2.3259 1.5882-1.5767 0.65278 1.8651 0.64025-2.3846 1.8672 1.2312v0" stroke="#000" stroke-linecap="round" stroke-width=".7" fill="none"/>
      <path id="path3016" stroke-linejoin="round" d="m367.69 755.07 1.8203-1.9397 1.8914 2.397 0.56905-1.847 2.9456 0.17354-1.6092-2.2647 3.5928-0.50438-3.3444-2.3235 2.2599 0.003 0.60986-2.0544 2.8628 1.1162 0.65068-2.2617s1.1265 1.5853 1.6116 1.2088c0.48511-0.37646 1.7037-3.9573 1.7037-3.9573l2.1736 2.5294 1.2559-2.2044 1.2862 2.3397 2.1864-3.2779 1.123 3.1691 1.9835-2.7691v0" stroke="#000" stroke-linecap="round" stroke-width=".8" fill="none"/>
      <path id="path3018" stroke-linejoin="round" d="m447.48 824.12-1.9317-3.8467 4.6577-0.0486-1.9172-2.2053 2.9199-1.4714-2.0807-1.1821 2.7506-1.1048-0.87395-1.2859 3.7939-0.18549-2.2616-2.1287 4.6563-0.21271-2.6045-1.888 2.7521-0.9407-2.7695-1.029 4.458-3.1291-1.2169-1.0452 2.742-2.0897-1.9013-0.39967 2.4005-1.6849-2.7622-0.20831 3.0849-2.3304-5.3421 0.69411 3.2469-3.5177-1.5497 0.34447 1.6929-3.6656-3.2657 1.3838-2.4208-0.61314 2.5698-2.0514-2.5886-0.0824 3.6-2.6094-1.554-0.14797 1.7088-1.86-2.4121 0.37172 2.7347-2.9104-3.4379 1.4221 0.83197-3.4743-2.5668 2.3797 0.1519-2.3363-2.4034 1.3566 1.0114-2.6918-3.6014 2.4452 3.5855-4.2508-3.4452 0.60138 6.0135-2.817-2.9388-0.66247 2.5741-1.559-3.2788-0.0935 2.9054-3.1128-2.7521 0.94068 2.03-4.5629-3.778 1.9911 1.69-3.9939-2.2312 1.3183 3.2426-4.0101-6.0265 1.3396 2.5567-3.5287-4.3018 1.2852 2.8997-3.7694-3.7794 1.8269-0.73077-4.6071-2.917 1.7997 0.83631-2.9818-3.4321 2.0787 0.48613-3.5619-2.0474 2.5932 0.47889-4.3826-1.881 1.8983 0.4847-3.726-2.059 1.28 0.49628-2.4128-2.0619 0.95174 0.32264-2.5387-3.9458 2.5218 0.14902-2.6646-1.3644 1.7835-0.18958-1.9314-1.8984-0.0714-0.19102-2.0956-1.7132 1.3676 0.15191-2.3363-3.7751 2.3194v0" stroke="#000" stroke-linecap="round" stroke-width=".8" fill="none"/>
      <path id="path3006" stroke-linejoin="round" d="m397.36 836.41 1.7163 2.9236 0.28796-1.9635 1.7939 1.1773 1.9837-1.4423 1.0654 1.172 1.9858-3.2622 0.94798 1.8992 1.7-3.1185 1.2677 2.6293 1.3555-2.6114 1.2868 1.2464-0.38766-2.4777 1.6901 0.37556-0.7039-1.2423 0.89352-1.377 2.2992 2.9276 0.13657-2.1101 1.741 1.6862 0.52069-1.5979 1.7658 0.44888-0.22279-3.8597 1.6066 1.9765 0.76478-0.94109 1.5896 1.5396-0.0148-2.2567 1.8189-0.0603-0.50511-1.7506 3.0831 0.60349-0.98193-2.773 3.2649-0.34159-2.0325-1.6882 3.3406-0.26827-1.0123-1.6812 1.4064-1.3007-1.2756-0.95504 1.6562-0.49822-1.0994-2.0458 1.5048-0.64485-1.4722-2.2667 3.0774 0.45784-0.12661-1.384 2.9656 1.3306-1.8089-3.4338 2.9961 0.23892-0.8553-1.389 2.6763-0.49123-1.7241-1.2493 1.9306-0.93309-1.5953-1.6852 1.4765-1.373-1.3626-1.3196 2.1181-1.7326-2.0969-1.4702 1.8323-1.5889-2.4697-1.6912 1.7623-1.5166-2.3657-0.88975 0.51504-1.7435-1.7658-0.44888 1.4064-1.3007-1.3512-1.0284 2.0877-0.64086-1.1581-1.6822 1.5804-0.57154-2.7307-2.7849 2.6141-2.0931-2.0912-1.3247 1.4121-1.155-1.8641-1.1047 1.5635-1.0084-2.5758-0.67279 0.28228-2.1091-1.7375 0.27927 1.0279-1.6672-2.2674-0.23393 1.168-1.8119-1.5217 0.20797 1.3725-2.1744-2.2922 1.0034 0.42803-2.1081-2.3565 1.2214 1.2211-2.3211-2.6062 0.41891 0.0722-1.8922-1.9363 0.78747 0.36364-1.8902-1.8188 0.0603 1.5239-2.0278-2.4549 0.56555 0.50373-2.0348-2.0424 1.8059-1.0293-2.1181v0" stroke="#000" stroke-linecap="round" stroke-width=".7" fill="none"/>
    </g>
  </g>
  <metadata>
    <rdf:RDF>
      <cc:Work>
        <dc:format>image/svg+xml</dc:format>
        <dc:type rdf:resource="http://purl.org/dc/dcmitype/StillImage"/>
        <cc:license rdf:resource="http://creativecommons.org/licenses/publicdomain/"/>
        <dc:publisher>
          <cc:Agent rdf:about="http://openclipart.org/">
            <dc:title>Openclipart</dc:title>
          </cc:Agent>
        </dc:publisher>
        <dc:title>tree-04</dc:title>
        <dc:date>2013-10-04T13:39:48</dc:date>
        <dc:description/>
        <dc:source>http://openclipart.org/detail/184546/tree-04-by-jpenrici-184546</dc:source>
        <dc:creator>
          <cc:Agent>
            <dc:title>jpenrici</dc:title>
          </cc:Agent>
        </dc:creator>
        <dc:subject>
          <rdf:Bag>
            <rdf:li>clip art</rdf:li>
            <rdf:li>clipart</rdf:li>
            <rdf:li>flora</rdf:li>
            <rdf:li>nature</rdf:li>
            <rdf:li>plant</rdf:li>
            <rdf:li>svg</rdf:li>
            <rdf:li>tree</rdf:li>
            <rdf:li>&#xC3;&#xA1;rvore</rdf:li>
          </rdf:Bag>
        </dc:subject>
      </cc:Work>
      <cc:License rdf:about="http://creativecommons.org/licenses/publicdomain/">
        <cc:permits rdf:resource="http://creativecommons.org/ns#Reproduction"/>
        <cc:permits rdf:resource="http://creativecommons.org/ns#Distribution"/>
        <cc:permits rdf:resource="http://creativecommons.org/ns#DerivativeWorks"/>
      </cc:License>
    </rdf:RDF>
  </metadata>
</svg>
