<?xml version="1.0" encoding="UTF-8" standalone="no"?>
<!-- Created with Inkscape (http://www.inkscape.org/) -->

<svg
   xmlns:dc="http://purl.org/dc/elements/1.1/"
   xmlns:cc="http://creativecommons.org/ns#"
   xmlns:rdf="http://www.w3.org/1999/02/22-rdf-syntax-ns#"
   xmlns:svg="http://www.w3.org/2000/svg"
   xmlns="http://www.w3.org/2000/svg"
   xmlns:sodipodi="http://sodipodi.sourceforge.net/DTD/sodipodi-0.dtd"
   xmlns:inkscape="http://www.inkscape.org/namespaces/inkscape"
   width="210mm"
   height="297mm"
   viewBox="0 0 744.09448819 1052.3622047"
   id="svg2"
   version="1.1"
   inkscape:version="0.91 r13725"
   sodipodi:docname="template.svg">
  <defs
     id="defs4">
    <pattern
       y="0"
       x="0"
       height="6"
       width="6"
       patternUnits="userSpaceOnUse"
       id="EMFhbasepattern" />
  </defs>
  <sodipodi:namedview
     id="base"
     pagecolor="#ffffff"
     bordercolor="#666666"
     borderopacity="1.0"
     inkscape:pageopacity="0.0"
     inkscape:pageshadow="2"
     inkscape:zoom="4"
     inkscape:cx="30.843162"
     inkscape:cy="975.00453"
     inkscape:document-units="px"
     inkscape:current-layer="layer1"
     showgrid="true"
     showguides="false"
     inkscape:window-width="1456"
     inkscape:window-height="995"
     inkscape:window-x="338"
     inkscape:window-y="74"
     inkscape:window-maximized="0"
     inkscape:snap-grids="true"
     inkscape:object-nodes="true">
    <inkscape:grid
       type="xygrid"
       id="grid3336"
       dotted="true"
       color="#000000"
       opacity="1" />
    <sodipodi:guide
       position="0,0"
       orientation="0,744.09449"
       id="guide4002" />
    <sodipodi:guide
       position="744.09449,0"
       orientation="-1052.3622,0"
       id="guide4004" />
    <sodipodi:guide
       position="744.09449,1052.3622"
       orientation="0,-744.09449"
       id="guide4006" />
    <sodipodi:guide
       position="0,1052.3622"
       orientation="1052.3622,0"
       id="guide4008" />
  </sodipodi:namedview>
  <metadata
     id="metadata7">
    <rdf:RDF>
      <cc:Work
         rdf:about="">
        <dc:format>image/svg+xml</dc:format>
        <dc:type
           rdf:resource="http://purl.org/dc/dcmitype/StillImage" />
        <dc:title></dc:title>
      </cc:Work>
    </rdf:RDF>
  </metadata>
  <g
     inkscape:label="Ebene 1"
     inkscape:groupmode="layer"
     id="layer1">
    <path
       inkscape:connector-curvature="0"
       id="panel"
       d="m 21.007618,17.153303 0,75 50,0 0,-75 -50,0 z"
       style="fill:#f2f2f2;fill-opacity:1;fill-rule:evenodd;stroke:none"
       inkscape:label="#path4028" />
    <path
       inkscape:connector-curvature="0"
       id="segB"
       d="m 64.164066,27.127193 2.740706,3.32731 -4.156085,23.44556 -6.038036,-3.37143 3.539611,-20.07413 3.913814,-3.32731 z"
       style="fill:#d9d9d9;fill-opacity:1;fill-rule:evenodd;stroke:none"
       inkscape:label="#path4030" />
    <path
       inkscape:connector-curvature="0"
       id="segG"
       d="m 55.554408,51.586403 -19.98587,0 -7.167468,3.28309 6.00186,3.3274 19.978111,0.044 7.241511,-3.3274 -6.068139,-3.32712 z"
       style="fill:#d9d9d9;fill-opacity:1;fill-rule:evenodd;stroke:none"
       inkscape:label="#path4032" />
    <path
       inkscape:connector-curvature="0"
       id="segF"
       d="m 35.572813,27.193283 -3.914022,3.32735 -4.154879,23.31339 7.251765,-3.26136 3.557714,-20.05203 -2.740638,-3.32735 z"
       style="fill:#d9d9d9;fill-opacity:1;fill-rule:evenodd;stroke:none"
       inkscape:label="#path4034" />
    <path
       inkscape:connector-curvature="0"
       id="segD"
       d="m 50.381669,80.298283 -19.98599,0 -3.914031,3.3274 2.740659,3.32712 19.98599,0 3.936071,-3.32712 -2.762699,-3.3274 z"
       style="fill:#d9d9d9;fill-opacity:1;fill-rule:evenodd;stroke:none"
       inkscape:label="#path4036" />
    <path
       inkscape:connector-curvature="0"
       id="segA"
       d="m 60.653369,22.918463 -20.00789,0 -3.917903,3.34936 2.740624,3.32732 20.00789,0 3.914096,-3.32732 -2.736817,-3.34936 z"
       style="fill:#d9d9d9;fill-opacity:1;fill-rule:evenodd;stroke:none"
       inkscape:label="#path4038" />
    <path
       inkscape:connector-curvature="0"
       id="segC"
       d="m 54.318454,82.964433 3.917942,-3.34913 4.112094,-23.44561 -7.230865,3.39344 -3.535739,20.05217 2.736578,3.34913 z"
       style="fill:#d9d9d9;fill-opacity:1;fill-rule:evenodd;stroke:none"
       inkscape:label="#path4040" />
    <path
       inkscape:connector-curvature="0"
       id="segE"
       d="m 25.808771,82.567913 -2.736728,-3.34941 4.066655,-23.31325 6.101685,3.26107 -3.51374,20.05218 -3.917932,3.34941 z"
       style="fill:#d9d9d9;fill-opacity:1;fill-rule:evenodd;stroke:none"
       inkscape:label="#path4042" />
    <path
       inkscape:connector-curvature="0"
       id="segDP"
       d="m 59.667868,83.625683 c 0,-2.20359 1.78477,-4.01038 3.98836,-4.01038 2.20359,0 3.98837,1.80679 3.98837,4.01038 0,0 0,0 0,0 0,2.20331 -1.78478,3.98836 -3.98837,3.98836 -2.20359,0 -3.98836,-1.78505 -3.98836,-3.98836 z"
       style="fill:#d9d9d9;fill-opacity:1;fill-rule:evenodd;stroke:none"
       inkscape:label="#path4044" />
    <path
       inkscape:connector-curvature="0"
       id="segE-0"
       d="m 25.469672,171.42288 -3,-3 0,-26 6,3 0,23 z"
       style="fill:#d9d9d9;fill-opacity:1;fill-rule:evenodd;stroke:none;stroke-width:0.1;stroke-miterlimit:4;stroke-dasharray:none;stroke-opacity:1"
       inkscape:label="#path4042"
       sodipodi:nodetypes="cccccc" />
    <path
       inkscape:connector-curvature="0"
       id="segD-2"
       d="m 50,168.95322 -21,0 -3,3 3,3 21,0 3,-3 z"
       style="fill:#d9d9d9;fill-opacity:1;fill-rule:evenodd;stroke:none;stroke-width:0.1;stroke-miterlimit:4;stroke-dasharray:none;stroke-opacity:1"
       inkscape:label="#path4036"
       sodipodi:nodetypes="ccccccc" />
    <path
       inkscape:connector-curvature="0"
       id="segD-2-2"
       d="m 36.021381,138.87051 -7.186597,0.022 -5.875244,3 5.875244,3 7.186597,0.022 L 39,141.89248 Z"
       style="fill:#d9d9d9;fill-opacity:1;fill-rule:evenodd;stroke:none;stroke-width:0.07078331;stroke-miterlimit:4;stroke-dasharray:none;stroke-opacity:1"
       inkscape:label="#path4036"
       sodipodi:nodetypes="ccccccc" />
    <path
       inkscape:connector-curvature="0"
       id="segD-2-2-3"
       d="m 50,108.83186 -21,0 -3,3 3,3 21,0 3,-3 z"
       style="fill:#d9d9d9;fill-opacity:1;fill-rule:evenodd;stroke:none;stroke-width:0.1;stroke-miterlimit:4;stroke-dasharray:none;stroke-opacity:1"
       inkscape:label="#path4036"
       sodipodi:nodetypes="ccccccc" />
    <path
       inkscape:connector-curvature="0"
       id="segE-0-7"
       d="m 53.530328,171.42288 3,-3 0,-26 -6,3 0,23 z"
       style="fill:#d9d9d9;fill-opacity:1;fill-rule:evenodd;stroke:none;stroke-width:0.1;stroke-miterlimit:4;stroke-dasharray:none;stroke-opacity:1"
       inkscape:label="#path4042"
       sodipodi:nodetypes="cccccc" />
    <path
       inkscape:connector-curvature="0"
       id="segE-0-4"
       d="m 25.469672,112.3622 -3,3 0,26 6,-3 0,-23 z"
       style="fill:#d9d9d9;fill-opacity:1;fill-rule:evenodd;stroke:none;stroke-width:0.1;stroke-miterlimit:4;stroke-dasharray:none;stroke-opacity:1"
       inkscape:label="#path4042"
       sodipodi:nodetypes="cccccc" />
    <path
       inkscape:connector-curvature="0"
       id="segE-0-7-6"
       d="m 53.530328,112.3622 3,3 0,26 -6,-3 0,-23 z"
       style="fill:#d9d9d9;fill-opacity:1;fill-rule:evenodd;stroke:none;stroke-width:0.1;stroke-miterlimit:4;stroke-dasharray:none;stroke-opacity:1"
       inkscape:label="#path4042"
       sodipodi:nodetypes="cccccc" />
    <path
       inkscape:connector-curvature="0"
       id="segE-0-7-6-9-7"
       d="m 39.372943,141.36217 3.23837,-3.02197 -0.144285,-22.97388 -5.934006,0 -0.144334,22.97385 z"
       style="fill:#d9d9d9;fill-opacity:1;fill-rule:evenodd;stroke:none;stroke-width:0.09035071;stroke-miterlimit:4;stroke-dasharray:none;stroke-opacity:1"
       inkscape:label="#path4042"
       sodipodi:nodetypes="cccccc" />
    <path
       inkscape:connector-curvature="0"
       id="segD-2-2-2"
       d="m 43.116538,138.87054 7.110713,0.022 5.813209,3 -5.813209,3 -7.110713,0.022 L 40,141.89251 Z"
       style="fill:#d9d9d9;fill-opacity:1;fill-rule:evenodd;stroke:none;stroke-width:0.07078331;stroke-miterlimit:4;stroke-dasharray:none;stroke-opacity:1"
       inkscape:label="#path4036"
       sodipodi:nodetypes="ccccccc" />
    <path
       inkscape:connector-curvature="0"
       id="segE-0-7-6-9-7-9"
       d="m 39.372943,142.42285 3.23837,3.02197 -0.144285,22.97388 -5.934006,0 -0.144334,-22.97385 z"
       style="fill:#d9d9d9;fill-opacity:1;fill-rule:evenodd;stroke:none;stroke-width:0.09035071;stroke-miterlimit:4;stroke-dasharray:none;stroke-opacity:1"
       inkscape:label="#path4042"
       sodipodi:nodetypes="cccccc" />
    <path
       inkscape:connector-curvature="0"
       id="segE-0-7-6-9-7-8"
       d="m 36,138.3622 0.01306,-2.99438 -6.065661,-20.00562 -0.947394,0 0,3.00288 6.122428,20.01346 z"
       style="fill:#d9d9d9;fill-opacity:1;fill-rule:evenodd;stroke:none;stroke-width:0.09035071;stroke-miterlimit:4;stroke-dasharray:none;stroke-opacity:1"
       inkscape:label="#path4042"
       sodipodi:nodetypes="ccccccc" />
    <path
       inkscape:connector-curvature="0"
       id="segE-0-7-6-9-7-8-7"
       d="M 43.013031,138.35371 43,135.36043 l 6.054369,-19.99823 0.945631,0 0,3.00177 -6.111031,20.00607 z"
       style="fill:#d9d9d9;fill-opacity:1;fill-rule:evenodd;stroke:none;stroke-width:0.09035071;stroke-miterlimit:4;stroke-dasharray:none;stroke-opacity:1"
       inkscape:label="#path4042"
       sodipodi:nodetypes="ccccccc" />
    <path
       inkscape:connector-curvature="0"
       id="segE-0-7-6-9-7-8-0"
       d="m 36,145.3622 0.01306,3.00229 -6.065661,20.05839 -0.947394,0 0,-3.0108 6.122428,-20.06625 z"
       style="fill:#d9d9d9;fill-opacity:1;fill-rule:evenodd;stroke:none;stroke-width:0.09035071;stroke-miterlimit:4;stroke-dasharray:none;stroke-opacity:1"
       inkscape:label="#path4042"
       sodipodi:nodetypes="ccccccc" />
    <path
       inkscape:connector-curvature="0"
       id="segE-0-7-6-9-7-8-7-6"
       d="m 43,145.3622 -0.01306,3.00229 6.065661,20.05839 0.947394,0 0,-3.0108 -6.122428,-20.06625 z"
       style="fill:#d9d9d9;fill-opacity:1;fill-rule:evenodd;stroke:none;stroke-width:0.09035071;stroke-miterlimit:4;stroke-dasharray:none;stroke-opacity:1"
       inkscape:label="#path4042"
       sodipodi:nodetypes="ccccccc" />
    <path
       inkscape:connector-curvature="0"
       id="segDP-0"
       d="m 60,172.3622 c 0,-2.20359 1.78477,-4.01038 3.98836,-4.01038 2.20359,0 3.98837,1.80679 3.98837,4.01038 0,0 0,0 0,0 0,2.20331 -1.78478,3.98836 -3.98837,3.98836 C 61.78477,176.35056 60,174.56551 60,172.3622 Z"
       style="fill:#d9d9d9;fill-opacity:1;fill-rule:evenodd;stroke:none"
       inkscape:label="#path4044" />
    <path
       inkscape:connector-curvature="0"
       id="segE-0-3"
       d="m 25.31078,248.41876 -2.631646,-3 3.192398,-26 5.631647,3 -2.824045,23 z"
       style="fill:#d9d9d9;fill-opacity:1;fill-rule:evenodd;stroke:none;stroke-width:0.1;stroke-miterlimit:4;stroke-dasharray:none;stroke-opacity:1"
       inkscape:label="#path4042"
       sodipodi:nodetypes="cccccc" />
    <path
       inkscape:connector-curvature="0"
       id="segD-2-7"
       d="m 50.144344,245.9491 -21,0 -3.368353,3 2.631646,3 21,0 3.368354,-3 z"
       style="fill:#d9d9d9;fill-opacity:1;fill-rule:evenodd;stroke:none;stroke-width:0.1;stroke-miterlimit:4;stroke-dasharray:none;stroke-opacity:1"
       inkscape:label="#path4036"
       sodipodi:nodetypes="ccccccc" />
    <path
       inkscape:connector-curvature="0"
       id="segD-2-2-1"
       d="m 39.859418,215.86639 -7.189299,0.022 -6.243597,3 5.50689,3 7.183896,0.022 3.349677,-3.02203 z"
       style="fill:#d9d9d9;fill-opacity:1;fill-rule:evenodd;stroke:none;stroke-width:0.07078331;stroke-miterlimit:4;stroke-dasharray:none;stroke-opacity:1"
       inkscape:label="#path4036"
       sodipodi:nodetypes="ccccccc" />
    <path
       inkscape:connector-curvature="0"
       id="segD-2-2-3-2"
       d="m 57.526319,185.82774 -21,0 -3.368354,3 2.631647,3 21,0 3.368353,-3 z"
       style="fill:#d9d9d9;fill-opacity:1;fill-rule:evenodd;stroke:none;stroke-width:0.1;stroke-miterlimit:4;stroke-dasharray:none;stroke-opacity:1"
       inkscape:label="#path4036"
       sodipodi:nodetypes="ccccccc" />
    <path
       inkscape:connector-curvature="0"
       id="segE-0-7-2"
       d="m 53.371438,248.41876 3.368354,-3 3.192398,-26 -6.368353,3 -2.824045,23 z"
       style="fill:#d9d9d9;fill-opacity:1;fill-rule:evenodd;stroke:none;stroke-width:0.1;stroke-miterlimit:4;stroke-dasharray:none;stroke-opacity:1"
       inkscape:label="#path4042"
       sodipodi:nodetypes="cccccc" />
    <path
       inkscape:connector-curvature="0"
       id="segE-0-4-6"
       d="m 32.56252,189.35808 -3.368354,3 -3.192398,26 6.368353,-3 2.824045,-23 z"
       style="fill:#d9d9d9;fill-opacity:1;fill-rule:evenodd;stroke:none;stroke-width:0.1;stroke-miterlimit:4;stroke-dasharray:none;stroke-opacity:1"
       inkscape:label="#path4042"
       sodipodi:nodetypes="cccccc" />
    <path
       inkscape:connector-curvature="0"
       id="segE-0-7-6-2"
       d="m 60.623178,189.35808 2.631646,3 -3.192398,26 -5.631647,-3 2.824045,-23 z"
       style="fill:#d9d9d9;fill-opacity:1;fill-rule:evenodd;stroke:none;stroke-width:0.1;stroke-miterlimit:4;stroke-dasharray:none;stroke-opacity:1"
       inkscape:label="#path4042"
       sodipodi:nodetypes="cccccc" />
    <path
       inkscape:connector-curvature="0"
       id="segE-0-7-6-9-7-2"
       d="m 42.905042,218.35805 3.609419,-3.02197 2.676557,-22.97388 -5.934008,0 -2.965168,22.97385 z"
       style="fill:#d9d9d9;fill-opacity:1;fill-rule:evenodd;stroke:none;stroke-width:0.09035071;stroke-miterlimit:4;stroke-dasharray:none;stroke-opacity:1"
       inkscape:label="#path4042"
       sodipodi:nodetypes="cccccc" />
    <path
       inkscape:connector-curvature="0"
       id="segD-2-2-2-7"
       d="m 46.954573,215.86642 7.108009,0.022 5.444856,3 -6.181564,3 -7.113411,0.022 -2.745481,-3.02203 z"
       style="fill:#d9d9d9;fill-opacity:1;fill-rule:evenodd;stroke:none;stroke-width:0.07078331;stroke-miterlimit:4;stroke-dasharray:none;stroke-opacity:1"
       inkscape:label="#path4036"
       sodipodi:nodetypes="ccccccc" />
    <path
       inkscape:connector-curvature="0"
       id="segE-0-7-6-9-7-9-6"
       d="m 42.774807,219.41873 2.867316,3.02197 -2.965118,22.97388 -5.934008,0 2.6765,-22.97385 z"
       style="fill:#d9d9d9;fill-opacity:1;fill-rule:evenodd;stroke:none;stroke-width:0.09035071;stroke-miterlimit:4;stroke-dasharray:none;stroke-opacity:1"
       inkscape:label="#path4042"
       sodipodi:nodetypes="cccccc" />
    <path
       inkscape:connector-curvature="0"
       id="segE-0-7-6-9-7-8-8"
       d="m 39.900449,215.35808 0.380724,-2.99438 -3.60928,-20.00562 -0.947394,0 -0.368707,3.00288 3.665084,20.01346 z"
       style="fill:#d9d9d9;fill-opacity:1;fill-rule:evenodd;stroke:none;stroke-width:0.09035071;stroke-miterlimit:4;stroke-dasharray:none;stroke-opacity:1"
       inkscape:label="#path4042"
       sodipodi:nodetypes="ccccccc" />
    <path
       inkscape:connector-curvature="0"
       id="segE-0-7-6-9-7-8-7-3"
       d="m 46.914522,215.34959 0.354528,-2.99328 8.509844,-19.99823 0.94563,0 -0.368571,3.00177 -8.567466,20.00607 z"
       style="fill:#d9d9d9;fill-opacity:1;fill-rule:evenodd;stroke:none;stroke-width:0.09035071;stroke-miterlimit:4;stroke-dasharray:none;stroke-opacity:1"
       inkscape:label="#path4042"
       sodipodi:nodetypes="ccccccc" />
    <path
       inkscape:connector-curvature="0"
       id="segE-0-7-6-9-7-8-0-0"
       d="m 39.040957,222.35808 -0.355575,3.00229 -8.528521,20.05839 -0.947394,0 0.36968,-3.0108 8.586253,-20.06625 z"
       style="fill:#d9d9d9;fill-opacity:1;fill-rule:evenodd;stroke:none;stroke-width:0.09035071;stroke-miterlimit:4;stroke-dasharray:none;stroke-opacity:1"
       inkscape:label="#path4042"
       sodipodi:nodetypes="ccccccc" />
    <path
       inkscape:connector-curvature="0"
       id="segE-0-7-6-9-7-8-7-6-4"
       d="m 46.040957,222.35808 -0.381735,3.00229 3.6028,20.05839 0.9474,0 0.36968,-3.0108 -3.658605,-20.06625 z"
       style="fill:#d9d9d9;fill-opacity:1;fill-rule:evenodd;stroke:none;stroke-width:0.09035071;stroke-miterlimit:4;stroke-dasharray:none;stroke-opacity:1"
       inkscape:label="#path4042"
       sodipodi:nodetypes="ccccccc" />
    <path
       inkscape:connector-curvature="0"
       id="segDP-0-8"
       d="m 57.466978,249.35808 c 0,-2.20359 1.78477,-4.01038 3.98836,-4.01038 2.20359,0 3.98837,1.80679 3.98837,4.01038 0,0 0,0 0,0 0,2.20331 -1.78478,3.98836 -3.98837,3.98836 -2.20359,0 -3.98836,-1.78505 -3.98836,-3.98836 z"
       style="fill:#d9d9d9;fill-opacity:1;fill-rule:evenodd;stroke:none"
       inkscape:label="#path4044" />
  </g>
</svg>
